<svg xmlns="http://www.w3.org/2000/svg" width="128" height="128" viewBox="0 0 256 256">
  <g transform="scale(0.5)">
    <path d="M86.554 26.164v58.519c0 2.937-2.381 5.317-5.317 5.317H22.076c-2.937 0-5.317-2.381-5.317-5.317V71.549V5.317C16.759 2.381 19.139 0 22.076 0h38.315C68.66 0.135 86.554 16.011 86.554 26.164z" fill="#e2e2e2"/>
    <path d="M16.833 21.859H57.1c3.218 0 5.827 2.609 5.827 5.827v18.341c0 3.218-2.609 5.827-5.827 5.827H9.273c-3.218 0-5.827-2.609-5.827-5.827V16.032" fill="#f15642"/>
    <path d="M3.446 16.032c0 3.218 2.609 5.827 5.827 5.827h7.56V10.552h-7.56c-3.218 0-5.827 2.609-5.827 5.827" fill="#be4030"/>
    <path d="M60.391 0h6.662c2.826 0 5.536 1.123 7.534 3.121l8.847 8.847c1.998 1.998 3.121 4.708 3.121 7.534v6.662c0-3.419-2.772-6.19-6.19-6.19h-7.866c-3.268 0-5.917-2.649-5.917-5.917 0 0 0-7.866 0-7.866v0C66.581 2.772 63.81 0 60.391 0C60.391 0 60.391 0 60.391 0z" fill="#b7b7b7"/>
    <path d="M20.708 27.68h-5.489c-0.829 0-1.5 0.671-1.5 1.5v9.1v6.231c0 0.829 0.671 1.5 1.5 1.5s1.5-0.671 1.5-1.5V39.78h3.989c2.272 0 4.122-1.849 4.122-4.121v-3.858C24.829 29.529 22.98 27.68 20.708 27.68zM21.829 35.659c0 0.618-0.503 1.121-1.122 1.121h-3.989v-6.1h3.989c0.619 0 1.122 0.503 1.122 1.121V35.659z" fill="#fff"/>
    <path d="M34.554 27.68h-5.22c-0.829 0-1.5 0.671-1.5 1.5v15.332c0 0.829 0.671 1.5 1.5 1.5h5.22c2.421 0 4.391-1.97 4.391-4.391v-9.55C38.945 29.65 36.976 27.68 34.554 27.68zM35.945 41.621c0 0.767-0.624 1.391-1.391 1.391h-3.72V30.68h3.72c0.767 0 1.391 0.624 1.391 1.391V41.621z" fill="#fff"/>
    <path d="M51.841 27.68h-8.11c-0.829 0-1.5 0.671-1.5 1.5v15.332c0 0.829 0.671 1.5 1.5 1.5s1.5-0.671 1.5-1.5v-6.166h3.812c0.828 0 1.5-0.671 1.5-1.5s-0.672-1.5-1.5-1.5H45.23V30.68h6.61c0.828 0 1.5-0.671 1.5-1.5S52.669 27.68 51.841 27.68z" fill="#fff"/>
    <path d="M45.142 69.824c-0.587 0.586-1.536 0.586-2.122 0l-5.248-5.248v15.642c0 0.828-0.671 1.5-1.5 1.5s-1.5-0.672-1.5-1.5V64.576l-5.248 5.248c-0.586 0.586-1.535 0.586-2.121 0s-0.586-1.535 0-2.121l6.323-6.323c0.625-0.625 1.424-0.955 2.243-1.024 0.098-0.02 0.2-0.031 0.304-0.031s0.206 0.011 0.304 0.031c0.818 0.069 1.618 0.399 2.243 1.024l6.323 6.323C45.727 68.289 45.727 69.238 45.142 69.824z" fill="#b7b7b7"/>
  </g>
</svg>